HIERARCHY
ROOT Hips
{
	OFFSET 0.000000 35.082581 0.000000
	CHANNELS 6 Xposition Yposition Zposition Xrotation Yrotation Zrotation 
	JOINT Spine
	{
		OFFSET 0.000000 6.876099 0.125700
		CHANNELS 3 Xrotation Yrotation Zrotation
		JOINT Spine1
		{
			OFFSET 0.000000 5.730043 0.104720
			CHANNELS 3 Xrotation Yrotation Zrotation
			JOINT Spine1_split
			{
				OFFSET 0.000000 5.730043 0.104720
				CHANNELS 3 Xrotation Yrotation Zrotation
				JOINT Spine2
				{
					OFFSET 0.000000 5.730043 0.104720
					CHANNELS 3 Xrotation Yrotation Zrotation
					JOINT Neck
					{
						OFFSET 0.000000 10.314075 0.188496
						CHANNELS 3 Xrotation Yrotation Zrotation
						JOINT Head
						{
							OFFSET 0.000000 7.643700 -2.377400
							CHANNELS 3 Xrotation Yrotation Zrotation
							JOINT HeadTop_End
							{
								OFFSET 0.000000 43.788605 -13.619600
								CHANNELS 3 Xrotation Yrotation Zrotation
								End Site
								{
									OFFSET 0.000000 0.000000 0.000000
								}
							}
						}
					}
					JOINT LeftShoulder
					{
						OFFSET 2.196100 4.412489 0.087492
						CHANNELS 3 Xrotation Yrotation Zrotation
						JOINT LeftShoulder_split
						{
							OFFSET 2.196100 4.412489 0.087492
							CHANNELS 3 Xrotation Yrotation Zrotation
							JOINT LeftArm
							{
								OFFSET 8.771219 -2.981674 -0.026999
								CHANNELS 3 Xrotation Yrotation Zrotation
								JOINT LeftForeArm
								{
									OFFSET 8.512804 0.000000 -0.000000
									CHANNELS 3 Xrotation Yrotation Zrotation
									JOINT LeftHand
									{
										OFFSET 18.484802 0.000000 -0.000000
										CHANNELS 3 Xrotation Yrotation Zrotation
										JOINT LeftHandThumb1
										{
											OFFSET 2.499420 -1.158070 2.653252
											CHANNELS 3 Xrotation Yrotation Zrotation
											JOINT LeftHandThumb2
											{
												OFFSET 2.370079 -1.368366 1.368366
												CHANNELS 3 Xrotation Yrotation Zrotation
												JOINT LeftHandThumb3
												{
													OFFSET 2.676727 -1.545410 1.545409
													CHANNELS 3 Xrotation Yrotation Zrotation
													JOINT LeftHandThumb4
													{
														OFFSET 1.692226 -0.977005 0.977007
														CHANNELS 3 Xrotation Yrotation Zrotation
														End Site
														{
															OFFSET 0.000000 0.000000 0.000000
														}
													}
												}
											}
										}
										JOINT LeftHandIndex1
										{
											OFFSET 7.924831 -0.457527 2.345128
											CHANNELS 3 Xrotation Yrotation Zrotation
											JOINT LeftHandIndex2
											{
												OFFSET 3.643303 0.000000 0.000000
												CHANNELS 3 Xrotation Yrotation Zrotation
												JOINT LeftHandIndex3
												{
													OFFSET 3.810799 0.000000 0.000000
													CHANNELS 3 Xrotation Yrotation Zrotation
													JOINT LeftHandIndex4
													{
														OFFSET 2.403702 0.000000 0.000000
														CHANNELS 3 Xrotation Yrotation Zrotation
														End Site
														{
															OFFSET 0.000000 0.000000 0.000000
														}
													}
												}
											}
										}
										JOINT LeftHandMiddle1
										{
											OFFSET 8.563995 0.000000 -0.000000
											CHANNELS 3 Xrotation Yrotation Zrotation
											JOINT LeftHandMiddle2
											{
												OFFSET 3.861618 0.000000 0.000000
												CHANNELS 3 Xrotation Yrotation Zrotation
												JOINT LeftHandMiddle3
												{
													OFFSET 3.701603 0.000000 0.000000
													CHANNELS 3 Xrotation Yrotation Zrotation
													JOINT LeftHandMiddle4
													{
														OFFSET 2.322544 0.000000 0.000000
														CHANNELS 3 Xrotation Yrotation Zrotation
														End Site
														{
															OFFSET 0.000000 0.000000 0.000000
														}
													}
												}
											}
										}
										JOINT LeftHandRing1
										{
											OFFSET 8.426460 -0.424637 -3.286992
											CHANNELS 3 Xrotation Yrotation Zrotation
											JOINT LeftHandRing2
											{
												OFFSET 3.126408 0.000000 0.000000
												CHANNELS 3 Xrotation Yrotation Zrotation
												JOINT LeftHandRing3
												{
													OFFSET 3.085026 0.000000 0.000000
													CHANNELS 3 Xrotation Yrotation Zrotation
													JOINT LeftHandRing4
													{
														OFFSET 1.644005 0.000000 0.000000
														CHANNELS 3 Xrotation Yrotation Zrotation
														End Site
														{
															OFFSET 0.000000 0.000000 0.000000
														}
													}
												}
											}
										}
									}
								}
							}
						}
					}
					JOINT RightShoulder
					{
						OFFSET -2.196100 4.412496 0.070690
						CHANNELS 3 Xrotation Yrotation Zrotation
						JOINT RightShoulder_split
						{
							OFFSET -2.196100 4.412496 0.070690
							CHANNELS 3 Xrotation Yrotation Zrotation
							JOINT RightArm
							{
								OFFSET -8.771282 -2.981682 -0.094208
								CHANNELS 3 Xrotation Yrotation Zrotation
								JOINT RightForeArm
								{
									OFFSET -8.494598 0.000000 0.000000
									CHANNELS 3 Xrotation Yrotation Zrotation
									JOINT RightHand
									{
										OFFSET -18.483803 0.000000 0.000001
										CHANNELS 3 Xrotation Yrotation Zrotation
										JOINT RightHandThumb1
										{
											OFFSET -2.527351 -1.008072 2.575253
											CHANNELS 3 Xrotation Yrotation Zrotation
											JOINT RightHandThumb2
											{
												OFFSET -2.321518 -1.340328 1.340329
												CHANNELS 3 Xrotation Yrotation Zrotation
												JOINT RightHandThumb3
												{
													OFFSET -2.657753 -1.534454 1.534455
													CHANNELS 3 Xrotation Yrotation Zrotation
													JOINT RightHandThumb4
													{
														OFFSET -1.807510 -1.043568 1.043567
														CHANNELS 3 Xrotation Yrotation Zrotation
														End Site
														{
															OFFSET 0.000000 0.000000 0.000000
														}
													}
												}
											}
										}
										JOINT RightHandIndex1
										{
											OFFSET -8.811420 0.015533 2.887987
											CHANNELS 3 Xrotation Yrotation Zrotation
											JOINT RightHandIndex2
											{
												OFFSET -3.537502 0.000000 0.000000
												CHANNELS 3 Xrotation Yrotation Zrotation
												JOINT RightHandIndex3
												{
													OFFSET -3.356201 0.000000 0.000000
													CHANNELS 3 Xrotation Yrotation Zrotation
													JOINT RightHandIndex4
													{
														OFFSET -1.933098 0.000000 0.000000
														CHANNELS 3 Xrotation Yrotation Zrotation
														End Site
														{
															OFFSET 0.000000 0.000000 0.000000
														}
													}
												}
											}
										}
										JOINT RightHandMiddle1
										{
											OFFSET -8.178135 0.000000 0.000000
											CHANNELS 3 Xrotation Yrotation Zrotation
											JOINT RightHandMiddle2
											{
												OFFSET -3.901302 0.000000 0.000000
												CHANNELS 3 Xrotation Yrotation Zrotation
												JOINT RightHandMiddle3
												{
													OFFSET -3.909599 0.000000 0.000000
													CHANNELS 3 Xrotation Yrotation Zrotation
													JOINT RightHandMiddle4
													{
														OFFSET -2.376003 0.000000 0.000000
														CHANNELS 3 Xrotation Yrotation Zrotation
														End Site
														{
															OFFSET 0.000000 0.000000 0.000000
														}
													}
												}
											}
										}
										JOINT RightHandRing1
										{
											OFFSET -7.559013 0.014137 -2.865403
											CHANNELS 3 Xrotation Yrotation Zrotation
											JOINT RightHandRing2
											{
												OFFSET -3.449306 0.000000 0.000000
												CHANNELS 3 Xrotation Yrotation Zrotation
												JOINT RightHandRing3
												{
													OFFSET -3.362106 0.000000 0.000000
													CHANNELS 3 Xrotation Yrotation Zrotation
													JOINT RightHandRing4
													{
														OFFSET -2.076401 0.000000 0.000000
														CHANNELS 3 Xrotation Yrotation Zrotation
														End Site
														{
															OFFSET 0.000000 0.000000 0.000000
														}
													}
												}
											}
										}
									}
								}
							}
						}
					}
				}
			}
		}
	}
	JOINT LeftUpLeg
	{
		OFFSET 10.205400 -3.823500 0.155100
		CHANNELS 3 Xrotation Yrotation Zrotation
		JOINT LeftLeg
		{
			OFFSET 0.708757 -12.982077 0.567790
			CHANNELS 3 Xrotation Yrotation Zrotation
			JOINT LeftFoot
			{
				OFFSET -0.708756 -10.717838 -2.184338
				CHANNELS 3 Xrotation Yrotation Zrotation
				JOINT LeftToeBase
				{
					OFFSET 0.108149 -7.191104 7.560241
					CHANNELS 3 Xrotation Yrotation Zrotation
					JOINT LeftToe_End
					{
						OFFSET 0.070230 0.081724 4.490308
						CHANNELS 3 Xrotation Yrotation Zrotation
						End Site
						{
							OFFSET 0.000000 0.000000 0.000000
						}
					}
				}
			}
		}
	}
	JOINT RightUpLeg
	{
		OFFSET -10.205400 -3.823500 0.005500
		CHANNELS 3 Xrotation Yrotation Zrotation
		JOINT RightLeg
		{
			OFFSET -0.708756 -12.982134 0.610632
			CHANNELS 3 Xrotation Yrotation Zrotation
			JOINT RightFoot
			{
				OFFSET 0.708754 -10.717769 -1.945823
				CHANNELS 3 Xrotation Yrotation Zrotation
				JOINT RightToeBase
				{
					OFFSET -0.108140 -7.191069 7.372968
					CHANNELS 3 Xrotation Yrotation Zrotation
					JOINT RightToe_End
					{
						OFFSET -0.070227 0.081735 4.479403
						CHANNELS 3 Xrotation Yrotation Zrotation
						End Site
						{
							OFFSET 0.000000 0.000000 0.000000
						}
					}
				}
			}
		}
	}
}
MOTION
Frames: 6
Frame Time: 0.016667
0.179147 28.402222 0.169832 7.691177 -10.139834 1.710584 7.621514 1.272743 -2.533644 6.431373 1.228086 -0.932160 0.000000 0.000000 0.000000 6.450688 1.172317 -0.845380 -3.222592 -0.333306 -1.041938 -12.897083 -4.165314 4.309513 0.000001 0.000000 0.000000 5.349763 -35.475927 4.326026 0.000000 0.000000 0.000000 -77.161207 -31.121333 -22.573207 0.000007 -27.636897 0.000012 -131.009817 7.371644 18.178671 39.578737 -17.197342 -21.086394 11.235999 23.988453 2.901709 3.118778 9.520974 4.222316 -0.000000 0.000001 -0.000000 3.600003 6.051849 -61.463479 4.128140 6.308926 -66.366189 1.118830 3.767441 -33.069314 -0.000001 0.000001 0.000002 2.451401 5.270991 -49.859934 3.793778 6.152686 -63.285958 1.517079 4.316431 -38.714841 0.000003 -0.000000 -0.000000 2.452883 5.272245 -49.876066 3.792023 6.151822 -63.269777 1.517076 4.316428 -38.714827 -0.000002 0.000000 0.000002 3.654541 31.100423 -18.637115 0.000000 0.000000 0.000000 -34.428982 31.033087 9.535804 0.000001 29.388258 -0.000004 8.244908 12.377331 -3.343646 29.376463 16.962614 20.541336 9.559536 -25.704486 -5.659310 1.488512 -8.233526 -5.339831 -0.000000 0.000002 0.000007 2.155493 -5.036550 46.317162 4.033404 -6.309995 65.142902 1.089712 -3.742285 32.460249 0.000000 0.000002 -0.000003 1.448245 -4.252497 37.599700 3.476833 -6.022592 59.964792 1.448469 -4.252772 37.602896 -0.000000 0.000002 0.000001 1.448247 -4.252497 37.599706 3.476838 -6.022587 59.964799 1.448462 -4.252773 37.602893 0.000000 -0.000000 -0.000002 -55.363277 -4.174443 29.578903 51.581274 -1.353453 4.050474 3.474831 2.153676 -26.718843 -1.160286 0.000002 0.000005 0.000000 -0.000000 0.000000 -21.105966 -1.590573 -40.824297 42.305044 5.722274 -0.192993 -19.806942 -10.852033 36.502450 -0.271492 0.000042 -0.000005 0.000000 0.000001 -0.000000 
0.211176 28.344345 0.186386 7.766191 -9.713914 1.498501 7.626038 1.118246 -2.605631 6.424123 1.146839 -0.979022 0.000000 0.000000 0.000000 6.443371 1.089223 -0.899068 -3.752345 -0.436695 -0.755377 -12.941244 -4.384517 4.621762 0.000001 0.000001 0.000000 5.326289 -35.461038 4.512451 0.000000 0.000000 0.000000 -76.482095 -31.696903 -21.754414 -0.000004 -27.909739 0.000009 -131.195503 7.258920 17.612992 39.578737 -17.197339 -21.086392 11.235998 23.988454 2.901705 3.118777 9.520974 4.222318 -0.000000 -0.000001 -0.000001 3.600002 6.051852 -61.463479 4.128140 6.308924 -66.366189 1.118833 3.767441 -33.069310 0.000000 0.000001 -0.000002 2.451401 5.270994 -49.859934 3.793777 6.152686 -63.285958 1.517080 4.316430 -38.714837 0.000001 0.000000 -0.000002 2.452883 5.272248 -49.876063 3.792019 6.151830 -63.269777 1.517074 4.316430 -38.714827 0.000003 0.000000 -0.000000 3.490746 30.381344 -18.452926 0.000000 0.000000 0.000000 -35.039926 31.378067 10.047777 0.000009 29.551565 -0.000006 7.728498 12.424310 -3.658109 29.376463 16.962611 20.541338 9.559540 -25.704483 -5.659314 1.488511 -8.233528 -5.339832 0.000000 -0.000005 -0.000003 2.155493 -5.036550 46.317162 4.033405 -6.309995 65.142902 1.089711 -3.742283 32.460249 0.000001 0.000001 -0.000001 1.448245 -4.252497 37.599696 3.476837 -6.022592 59.964792 1.448469 -4.252772 37.602896 -0.000002 0.000000 0.000003 1.448247 -4.252496 37.599706 3.476839 -6.022587 59.964799 1.448464 -4.252773 37.602889 -0.000000 0.000002 -0.000002 -56.042006 -4.613279 29.522547 52.102595 -1.635037 3.819441 3.394362 2.143312 -26.402125 -1.105322 -0.000000 0.000008 0.000000 -0.000000 -0.000000 -20.829208 -2.078970 -40.766076 42.190540 5.604664 -0.234179 -20.050031 -10.966822 36.590963 -0.225705 -0.000034 -0.000012 0.000000 -0.000004 0.000000 
0.245534 28.280231 0.204256 7.715218 -9.354512 1.395543 7.643952 1.000559 -2.686956 6.433799 1.091084 -1.028594 0.000000 0.000000 0.000000 6.452327 1.034177 -0.954309 -4.162272 -0.548712 -0.475729 -12.750510 -4.641914 4.905307 0.000001 0.000001 -0.000000 5.318300 -35.463701 4.617418 0.000000 0.000000 0.000000 -75.973185 -32.528089 -21.224063 0.000016 -27.688205 0.000010 -131.101765 6.992723 16.947940 39.578740 -17.197335 -21.086394 11.236001 23.988453 2.901706 3.118778 9.520973 4.222324 -0.000003 0.000001 -0.000001 3.600002 6.051848 -61.463479 4.128142 6.308927 -66.366189 1.118830 3.767441 -33.069310 0.000003 0.000001 -0.000003 2.451402 5.270991 -49.859923 3.793779 6.152686 -63.285958 1.517079 4.316429 -38.714837 0.000002 -0.000000 -0.000000 2.452883 5.272246 -49.876063 3.792020 6.151825 -63.269777 1.517075 4.316427 -38.714824 -0.000002 -0.000001 0.000001 3.343524 29.595691 -18.254000 0.000000 0.000000 0.000000 -35.737619 31.911282 10.742140 0.000005 29.323423 -0.000008 7.359819 12.604409 -3.966197 29.376466 16.962613 20.541336 9.559540 -25.704486 -5.659314 1.488514 -8.233526 -5.339833 0.000003 -0.000002 -0.000000 2.155493 -5.036552 46.317155 4.033405 -6.309995 65.142902 1.089712 -3.742284 32.460245 0.000000 0.000001 -0.000001 1.448244 -4.252497 37.599700 3.476834 -6.022593 59.964785 1.448469 -4.252771 37.602896 -0.000001 0.000001 -0.000002 1.448247 -4.252498 37.599710 3.476839 -6.022588 59.964799 1.448463 -4.252773 37.602893 -0.000002 0.000001 -0.000003 -56.519409 -4.900053 29.347021 52.623083 -1.849266 3.705482 3.281374 2.144056 -26.167932 -1.081828 0.000002 -0.000002 0.000000 0.000000 0.000000 -20.520033 -2.425782 -40.903134 42.246984 5.591096 -0.224929 -20.376727 -11.104504 36.643449 -0.183013 -0.000003 0.000009 0.000000 -0.000002 -0.000000 
0.279110 28.220238 0.221728 7.595889 -9.194691 1.395372 7.676782 0.923872 -2.775973 6.458416 1.059676 -1.078917 0.000000 0.000000 0.000000 6.476068 1.004666 -1.008484 -4.451148 -0.648957 -0.252692 -12.418168 -4.890462 5.127134 0.000000 -0.000001 0.000000 5.324640 -35.494458 4.670781 0.000000 0.000000 0.000000 -75.597777 -33.466551 -20.902961 0.000014 -27.148696 0.000014 -130.986554 6.692552 16.411355 39.578747 -17.197342 -21.086397 11.235999 23.988453 2.901712 3.118777 9.520976 4.222316 0.000001 -0.000003 -0.000000 3.600003 6.051849 -61.463479 4.128139 6.308925 -66.366189 1.118828 3.767438 -33.069314 0.000001 0.000000 -0.000000 2.451402 5.270994 -49.859930 3.793777 6.152686 -63.285958 1.517075 4.316432 -38.714841 -0.000002 0.000001 -0.000002 2.452884 5.272245 -49.876066 3.792018 6.151826 -63.269784 1.517075 4.316429 -38.714827 -0.000001 0.000000 0.000002 3.229013 28.899350 -18.100983 0.000000 0.000000 0.000000 -36.415263 32.483082 11.481571 -0.000002 28.812631 -0.000001 7.126552 12.795549 -4.183804 29.376459 16.962614 20.541340 9.559541 -25.704486 -5.659314 1.488515 -8.233523 -5.339827 -0.000001 -0.000001 0.000002 2.155493 -5.036550 46.317159 4.033403 -6.309996 65.142909 1.089711 -3.742284 32.460245 -0.000000 -0.000001 0.000001 1.448245 -4.252497 37.599700 3.476835 -6.022594 59.964785 1.448470 -4.252772 37.602893 -0.000000 0.000002 -0.000001 1.448246 -4.252497 37.599706 3.476839 -6.022588 59.964799 1.448464 -4.252773 37.602893 0.000001 -0.000002 0.000002 -56.859662 -4.848001 29.173555 53.159649 -2.080490 3.846470 3.083767 2.176796 -26.053927 -1.090912 -0.000008 -0.000005 0.000000 0.000000 0.000000 -20.307503 -2.504059 -41.121956 42.448932 5.647177 -0.224662 -20.668543 -11.228527 36.695936 -0.161674 -0.000016 0.000009 0.000000 -0.000002 -0.000000 
0.311663 28.165985 0.237011 7.512513 -9.200429 1.329244 7.723313 0.884603 -2.873017 6.493215 1.049444 -1.127365 0.000000 0.000000 0.000000 6.510264 0.996294 -1.058785 -4.634159 -0.722704 -0.109982 -12.058772 -5.086245 5.266006 0.000001 0.000000 -0.000000 5.340317 -35.549519 4.695809 0.000000 0.000000 0.000000 -75.314918 -34.349653 -20.711826 0.000008 -26.522328 0.000017 -131.014571 6.478416 16.142104 39.578737 -17.197342 -21.086392 11.235998 23.988454 2.901708 3.118778 9.520967 4.222323 0.000002 0.000003 0.000003 3.600002 6.051850 -61.463479 4.128142 6.308922 -66.366189 1.118827 3.767440 -33.069314 0.000000 -0.000000 0.000002 2.451401 5.270992 -49.859927 3.793777 6.152689 -63.285965 1.517081 4.316431 -38.714837 -0.000001 0.000001 -0.000003 2.452883 5.272246 -49.876066 3.792023 6.151825 -63.269791 1.517073 4.316429 -38.714824 0.000003 -0.000001 0.000000 3.151002 28.391005 -18.024835 0.000000 0.000000 0.000000 -36.963256 32.955874 12.147687 -0.000002 28.192816 -0.000000 6.986306 12.928194 -4.277649 29.376463 16.962613 20.541340 9.559540 -25.704481 -5.659312 1.488517 -8.233522 -5.339832 0.000004 -0.000002 0.000001 2.155493 -5.036552 46.317159 4.033406 -6.309996 65.142902 1.089711 -3.742285 32.460245 0.000001 -0.000000 0.000004 1.448244 -4.252498 37.599703 3.476835 -6.022592 59.964792 1.448469 -4.252773 37.602896 0.000000 -0.000000 0.000006 1.448247 -4.252499 37.599710 3.476841 -6.022586 59.964799 1.448464 -4.252774 37.602889 -0.000001 -0.000000 -0.000002 -57.236299 -4.756962 29.142679 53.812335 -2.334879 4.152691 2.818058 2.239804 -26.067595 -1.124408 -0.000002 -0.000002 0.000000 0.000001 0.000000 -20.258715 -2.483991 -41.114870 42.644867 5.674774 -0.388683 -20.818538 -11.305603 36.787102 -0.157193 -0.000009 -0.000007 0.000000 -0.000002 -0.000000 
0.343156 28.121593 0.254012 7.416984 -9.226379 1.289289 7.779776 0.878666 -2.968870 6.532549 1.056136 -1.171396 0.000000 0.000000 0.000000 6.549419 1.004023 -1.102939 -4.736999 -0.764131 -0.043793 -11.772137 -5.200623 5.319873 -0.000000 -0.000000 0.000000 5.359575 -35.619047 4.708699 0.000000 0.000000 0.000000 -75.090055 -35.051336 -20.583948 0.000001 -26.003775 0.000026 -131.235214 6.425958 16.175163 39.578733 -17.197344 -21.086397 11.235998 23.988454 2.901704 3.118782 9.520970 4.222320 -0.000001 0.000001 0.000002 3.600002 6.051849 -61.463479 4.128138 6.308926 -66.366189 1.118829 3.767438 -33.069310 -0.000002 0.000001 -0.000002 2.451401 5.270991 -49.859923 3.793776 6.152689 -63.285965 1.517082 4.316431 -38.714844 -0.000001 -0.000000 0.000003 2.452883 5.272247 -49.876066 3.792022 6.151828 -63.269777 1.517077 4.316430 -38.714824 0.000002 -0.000001 0.000003 3.106009 28.105025 -18.032331 0.000000 0.000000 0.000000 -37.301664 33.244774 12.665274 0.000005 27.625178 -0.000007 6.887808 12.988432 -4.257110 29.376463 16.962616 20.541336 9.559537 -25.704481 -5.659308 1.488516 -8.233522 -5.339833 0.000005 -0.000007 -0.000001 2.155493 -5.036551 46.317155 4.033405 -6.309995 65.142909 1.089710 -3.742284 32.460245 -0.000000 -0.000001 0.000000 1.448244 -4.252498 37.599700 3.476836 -6.022593 59.964792 1.448470 -4.252772 37.602896 0.000001 0.000000 0.000006 1.448247 -4.252497 37.599706 3.476840 -6.022586 59.964799 1.448464 -4.252774 37.602886 0.000000 0.000000 -0.000001 -57.520964 -4.636026 29.068848 54.380706 -2.529997 4.501734 2.588217 2.296666 -26.125962 -1.177484 -0.000009 0.000004 0.000000 -0.000000 0.000000 -20.241220 -2.491841 -41.101924 42.813764 5.727095 -0.644437 -20.922878 -11.377628 36.915458 -0.158362 -0.000005 -0.000009 0.000000 0.000002 -0.000000 
